<svg xmlns="http://www.w3.org/2000/svg" width="1200" height="630" viewBox="0 0 1200 630" role="img" aria-labelledby="title desc">
  <title id="title">Sweet Justice: Road to Freedom</title>
  <desc id="desc">Candy courthouse themed Indiana criminal-law race game preview image.</desc>
  <defs>
    <linearGradient id="sky" x1="0" y1="0" x2="1" y2="1">
      <stop offset="0" stop-color="#f8f3ea"/>
      <stop offset="0.52" stop-color="#eaf7f3"/>
      <stop offset="1" stop-color="#faeadf"/>
    </linearGradient>
    <filter id="shadow" x="-20%" y="-20%" width="140%" height="140%">
      <feDropShadow dx="0" dy="12" stdDeviation="9" flood-color="#20242a" flood-opacity="0.22"/>
    </filter>
    <pattern id="grid" width="48" height="48" patternUnits="userSpaceOnUse">
      <path d="M48 0H0V48" fill="none" stroke="#ffffff" stroke-width="2" opacity="0.55"/>
    </pattern>
  </defs>
  <rect width="1200" height="630" fill="url(#sky)"/>
  <rect width="1200" height="630" fill="url(#grid)" opacity="0.7"/>

  <path d="M72 438 C206 520 324 504 443 446 C565 386 657 390 777 450 C915 519 1028 462 1132 356" fill="none" stroke="#3f4650" stroke-width="34" stroke-linecap="round" opacity="0.24"/>
  <path d="M72 438 C206 520 324 504 443 446 C565 386 657 390 777 450 C915 519 1028 462 1132 356" fill="none" stroke="#ffffff" stroke-width="16" stroke-linecap="round"/>

  <g filter="url(#shadow)">
    <circle cx="110" cy="437" r="30" fill="#556170" stroke="#20242a" stroke-width="5"/>
    <circle cx="256" cy="497" r="24" fill="#f0c84b" stroke="#20242a" stroke-width="5"/>
    <circle cx="403" cy="463" r="24" fill="#4f9bd9" stroke="#20242a" stroke-width="5"/>
    <circle cx="552" cy="398" r="24" fill="#8e58cf" stroke="#20242a" stroke-width="5"/>
    <circle cx="704" cy="420" r="24" fill="#58bfa3" stroke="#20242a" stroke-width="5"/>
    <circle cx="858" cy="489" r="24" fill="#d95c5c" stroke="#20242a" stroke-width="5"/>
    <circle cx="1018" cy="435" r="24" fill="#1e9da4" stroke="#20242a" stroke-width="5"/>
    <circle cx="1124" cy="357" r="36" fill="#ef7d45" stroke="#20242a" stroke-width="6"/>
  </g>

  <g transform="translate(72 76)" filter="url(#shadow)">
    <rect x="0" y="0" width="706" height="266" rx="18" fill="#ffffff" stroke="#20242a" stroke-width="5"/>
    <text x="36" y="68" font-family="Arial, Helvetica, sans-serif" font-size="28" font-weight="800" letter-spacing="3" fill="#6b5960">INDIANA CRIMINAL-LAW RACE</text>
    <text x="36" y="142" font-family="Georgia, 'Times New Roman', serif" font-size="66" font-weight="900" fill="#20242a">Sweet Justice</text>
    <text x="38" y="203" font-family="Arial, Helvetica, sans-serif" font-size="42" font-weight="900" fill="#ad3d5a">Road to Freedom</text>
    <text x="40" y="246" font-family="Arial, Helvetica, sans-serif" font-size="24" font-weight="700" fill="#4b5360">Roll. Object. Preserve. Win lawful relief.</text>
  </g>

  <g transform="translate(828 82)" filter="url(#shadow)">
    <path d="M146 0 L262 78 L242 236 L50 236 L28 78 Z" fill="#f7f0df" stroke="#20242a" stroke-width="6"/>
    <rect x="68" y="96" width="154" height="112" rx="8" fill="#ffffff" stroke="#20242a" stroke-width="5"/>
    <path d="M90 96 V62 H200 V96" fill="none" stroke="#20242a" stroke-width="8" stroke-linecap="round"/>
    <circle cx="145" cy="154" r="35" fill="#f0c84b" stroke="#20242a" stroke-width="5"/>
    <path d="M125 154 h40 M145 134 v40" stroke="#20242a" stroke-width="8" stroke-linecap="round"/>
    <rect x="87" y="208" width="116" height="16" fill="#58bfa3" stroke="#20242a" stroke-width="4"/>
  </g>

  <g transform="translate(137 538)">
    <rect x="0" y="0" width="926" height="48" rx="24" fill="#20242a" opacity="0.92"/>
    <text x="463" y="32" text-anchor="middle" font-family="Arial, Helvetica, sans-serif" font-size="22" font-weight="800" fill="#ffffff">A playable local browser game for evidence, procedure, trial skill, sentencing, appeals, and PCR</text>
  </g>
</svg>
